<svg width="117" height="117" viewBox="0 0 117 117" fill="none" xmlns="http://www.w3.org/2000/svg">
<g clip-path="url(#clip0_10_99)">
<path d="M44.9291 65.9363C43.9931 66.5083 43.1611 68.4843 43.1611 69.9403C43.1611 71.2923 45.1891 73.8403 46.3331 73.8403C46.6451 73.8403 46.3331 73.3723 45.5531 72.7483C43.9411 71.5003 43.6811 68.5363 45.0331 66.6643C45.8651 65.4683 45.8651 65.3123 44.9291 65.9363Z" fill="#151515"/>
<path d="M54.9646 65.8846C54.7566 66.1966 55.0686 67.3406 55.5886 68.4326C56.1606 69.5246 56.4726 70.6166 56.3166 70.8246C56.2126 71.0846 56.3686 71.2406 56.6286 71.2406C56.9406 71.2406 57.2006 71.6046 57.2006 72.0206C57.2006 72.4366 57.6166 73.0086 58.1366 73.2686C58.9166 73.6846 58.8646 73.3206 57.6686 70.8246C56.9406 69.2126 56.1086 67.2886 55.7966 66.6126C55.5366 65.8846 55.1726 65.5726 54.9646 65.8846Z" fill="#151515"/>
<path d="M60.5283 66.3004C60.0603 67.5484 60.6843 68.5884 62.6083 69.7324C64.8443 71.0324 65.3643 72.2804 64.1163 73.2164C63.5443 73.6844 63.4923 73.8924 63.9083 73.7364C65.0003 73.4244 65.7283 72.0204 65.3643 71.0844C65.2083 70.6164 64.0643 69.6284 62.9203 68.9004C61.3083 67.8604 60.7883 67.2884 60.9963 66.5084C61.3083 65.3644 60.9443 65.1564 60.5283 66.3004Z" fill="#151515"/>
<path d="M70.0448 66.1963C69.8888 66.6643 69.8888 67.0803 70.0968 67.0803C70.3048 67.0803 70.9808 68.4843 71.6568 70.1483C72.3328 71.8643 73.1648 73.3723 73.5288 73.4763C74.0488 73.6843 73.9448 73.1123 73.2168 71.6043C72.6968 70.4083 71.8128 68.4843 71.2928 67.3923C70.6168 65.8323 70.3048 65.5203 70.0448 66.1963Z" fill="#151515"/>
<path d="M19.1367 83.2004C19.2407 85.4884 19.5007 87.3604 19.7607 87.3604C20.0207 87.3604 20.2807 85.4884 20.3847 83.2004C20.4887 79.7684 20.3847 79.0404 19.7607 79.0404C19.1367 79.0404 19.0327 79.7684 19.1367 83.2004Z" fill="#151515"/>
<path d="M22.5172 79.6125C23.7132 80.2885 23.6612 81.9525 22.3612 82.8365C21.3212 83.5645 21.3212 83.5645 22.4652 85.2805C23.1412 86.2165 23.9732 87.1525 24.3892 87.2565C24.8052 87.4125 24.4412 86.6325 23.6612 85.5925L22.2052 83.6685L23.2972 82.8885C24.7012 81.9005 24.7532 80.2885 23.4532 79.5605C22.1532 78.8845 21.2692 78.8845 22.5172 79.6125Z" fill="#151515"/>
<path d="M27.5607 80.0804C25.7407 81.9004 26.6247 87.3604 28.7567 87.3604C29.2247 87.3604 29.2247 87.2564 28.7567 86.9444C26.9887 85.8004 26.8327 81.8484 28.4967 79.9244C29.5887 78.6764 28.8607 78.7804 27.5607 80.0804Z" fill="#151515"/>
<path d="M31.5649 79.4565C33.2289 80.5485 33.5409 84.8645 32.0849 86.8405C31.7209 87.2565 31.9809 87.1525 32.6569 86.6325C34.6329 84.9165 33.8009 79.0405 31.5649 79.0405C31.0969 79.0405 31.0969 79.1445 31.5649 79.4565Z" fill="#151515"/>
<path d="M36.5047 79.4563C38.3247 83.8243 39.7807 86.8403 40.0407 86.8403C40.3007 86.8403 40.6127 86.4763 40.7687 86.0083C40.9247 85.5923 40.8727 85.3323 40.6127 85.4883C40.3527 85.6443 39.5207 84.2923 38.6887 82.4203C37.8567 80.6003 36.9727 79.0403 36.7647 79.0403C36.5047 79.0403 36.4007 79.2483 36.5047 79.4563Z" fill="#151515"/>
<path d="M43.2648 80.0283C42.8488 80.7043 42.7968 81.0683 43.1088 80.9123C43.4208 80.7043 43.6808 81.7963 43.7848 84.0323C43.8888 86.4763 44.1488 87.6203 44.6688 87.7763C45.1888 87.9323 45.2408 87.8283 44.9288 87.3083C44.6688 86.8923 44.3568 84.8123 44.2008 82.6803C43.9408 79.0923 43.8888 78.8843 43.2648 80.0283Z" fill="#151515"/>
<path d="M49.7645 79.7164C49.6085 80.1324 49.6605 80.6524 49.8685 80.9124C50.1285 81.1724 50.7005 82.4724 51.2205 83.8244C51.7405 85.1764 52.5205 86.5804 52.9365 86.9444C53.6125 87.5164 53.7165 87.4644 53.4565 86.8404C51.8965 83.0444 50.2845 79.2484 50.1805 79.1444C50.1285 79.0404 49.9205 79.3524 49.7645 79.7164Z" fill="#151515"/>
<path d="M55.6406 79.2481C55.6406 79.4561 57.0446 81.4321 58.7606 83.5641C60.4766 85.7481 61.8806 87.1001 61.8806 86.6321C61.8806 86.1641 61.2566 85.0201 60.4766 84.1361C57.2006 80.3921 55.6926 78.7801 55.6406 79.2481Z" fill="#151515"/>
<path d="M66.9247 79.7164C66.7687 80.1324 66.8207 80.6524 67.0287 80.9124C67.2887 81.1724 67.8607 82.4724 68.3807 83.8244C68.9007 85.1764 69.6807 86.5804 70.0967 86.9444C70.7727 87.5164 70.8767 87.4644 70.6167 86.8404C69.0567 83.0444 67.4447 79.2484 67.3407 79.1444C67.2887 79.0404 67.0807 79.3524 66.9247 79.7164Z" fill="#151515"/>
<path d="M75.8685 80.1842C78.0525 85.5922 78.9365 87.4122 79.1965 86.9442C79.5605 86.3722 76.7525 79.8202 75.9205 79.3002C75.5565 79.0922 75.5565 79.4042 75.8685 80.1842Z" fill="#151515"/>
<path d="M84.2402 83.2004C84.2402 85.6444 84.4482 87.3604 84.7602 87.3604C85.0722 87.3604 85.2802 85.6444 85.2802 83.2004C85.2802 80.7564 85.0722 79.0404 84.7602 79.0404C84.4482 79.0404 84.2402 80.7564 84.2402 83.2004Z" fill="#151515"/>
<path d="M88.1929 79.7164C89.4409 81.6924 93.8609 86.8404 94.0169 86.3724C94.2249 85.7484 89.5449 79.8204 88.5049 79.3524C88.0889 79.1444 87.9849 79.3004 88.1929 79.7164Z" fill="#151515"/>
<path d="M97.293 83.0444C97.293 85.4364 97.397 87.3604 97.657 87.3604C97.865 87.3604 97.969 86.0084 97.865 84.3964C97.605 79.1444 97.397 78.6244 97.293 83.0444Z" fill="#151515"/>
<path d="M36.0361 84.2402C36.0361 86.1122 36.1401 86.8402 36.2441 85.9042C36.3481 85.0202 36.3481 83.4602 36.2441 82.5242C36.1401 81.6402 36.0361 82.3682 36.0361 84.2402Z" fill="#151515"/>
<path d="M54.5477 29.9517C54.1317 30.4197 52.9357 31.3557 51.8957 32.0317C48.8797 33.9557 49.3477 35.5677 53.5077 37.6997C56.1077 38.9997 63.6997 39.8317 66.4557 39.0517C69.0037 38.3237 69.2637 37.2837 67.4437 34.9957C66.8197 34.2157 65.9877 32.8637 65.6237 32.0837C65.1037 30.8877 64.6877 30.6277 63.5437 30.7837C62.3997 30.8877 61.8277 31.5117 60.5797 34.0597L59.0197 37.1797L58.7077 34.3197C58.5517 32.7077 58.1357 30.8877 57.7717 30.2637C57.0437 28.9117 55.5357 28.7557 54.5477 29.9517Z" fill="#961515"/>
<path d="M50.4403 40.1439C48.1523 40.9759 47.7883 42.6399 49.5563 44.0439C50.2323 44.5639 51.2203 45.7599 51.6883 46.6959C52.2083 47.6839 52.9363 48.3599 53.5603 48.3599C54.8603 48.3599 56.5243 46.1759 57.3043 43.4719C57.8243 41.4439 57.9283 41.4439 58.2923 42.6399C58.5003 43.3679 58.6563 44.7199 58.7083 45.6559C58.8123 49.5039 60.6323 50.5959 63.0763 48.3599C64.0123 47.5279 65.4683 46.2799 66.3003 45.5519C67.6003 44.5119 67.7563 44.0959 67.2883 43.3159C65.7283 40.7159 54.6523 38.6359 50.4403 40.1439Z" fill="#961515"/>
<path d="M57.2521 54.184C57.3041 58.864 57.4081 59.592 57.7721 57.72C58.3441 54.34 58.3441 48.36 57.7201 48.36C57.4081 48.36 57.2001 50.596 57.2521 54.184Z" fill="#961515"/>
<path d="M0 58.5V117H58.5H117V58.5V-2.41399e-06H58.5H0V58.5ZM57.72 29.744C58.5 30.576 58.76 31.616 58.76 33.748L58.812 36.66L60.268 33.8C62.4 29.536 65.364 28.964 66.3 32.604C66.456 33.384 67.184 34.684 67.912 35.516C68.588 36.348 69.16 37.18 69.16 37.44C69.16 38.636 66.664 39.52 63.44 39.52L60.06 39.572L62.816 40.508C67.548 42.172 68.9 44.408 66.196 46.124C65.364 46.592 64.116 47.684 63.388 48.568C61.724 50.44 59.644 50.18 58.864 47.996C58.448 46.852 58.292 48.048 58.292 53.04C58.24 60.996 57.564 64.012 57.2 58.084C56.94 53.82 57.304 45.916 57.928 43.68C58.136 42.952 57.72 43.576 56.992 45.084C55.848 47.528 54.444 48.88 53.092 48.88C52.78 48.88 52.052 47.944 51.48 46.852C50.908 45.708 50.128 44.564 49.816 44.356C48.568 43.576 47.84 42.276 48.152 41.444C48.516 40.508 50.388 39.728 53.56 39.208L55.9 38.844L54.184 38.324C52.104 37.7 49.4 35.308 49.4 34.112C49.4 33.644 50.18 32.812 51.116 32.24C52 31.668 53.404 30.628 54.236 29.9C55.952 28.288 56.368 28.288 57.72 29.744ZM49.816 65.624C50.18 65.988 50.44 66.716 50.388 67.288C50.388 68.328 50.336 68.328 49.816 67.184C49.036 65.572 47.008 65.156 45.76 66.3C44.46 67.496 44.356 71.292 45.552 72.488C46.592 73.528 48.568 73.58 49.4 72.54C49.764 72.124 50.336 71.76 50.648 71.76C50.96 71.76 50.544 72.384 49.712 73.112C46.852 75.66 43.16 73.632 43.16 69.524C43.16 66.716 44.72 65 47.32 65C48.36 65 49.452 65.26 49.816 65.624ZM57.2 69.16C58.084 71.292 59.072 73.216 59.436 73.424C59.852 73.684 59.644 73.84 58.864 73.84C58.136 73.84 57.512 73.372 57.096 72.54C56.264 70.668 53.456 70.72 52.572 72.592C51.324 75.4 51.532 73.372 52.832 70.148C54.444 66.196 55.12 64.844 55.432 65.104C55.536 65.208 56.316 67.08 57.2 69.16ZM64.688 65.312C65.156 65.52 65.52 66.196 65.468 67.028C65.468 68.328 65.416 68.328 65 67.236C64.532 66.092 62.764 65.208 61.88 65.78C60.84 66.456 61.412 67.548 63.596 69.004C66.196 70.772 66.56 72.592 64.428 73.788C63.284 74.412 62.92 74.412 61.62 73.788C60.112 73.06 59.176 71.24 60.268 71.24C60.58 71.24 60.84 71.604 60.84 72.02C60.84 72.852 63.076 73.632 63.908 73.06C64.948 72.436 64.48 71.344 62.66 70.2C60.32 68.744 59.592 67.444 60.32 66.04C60.892 65 62.972 64.636 64.688 65.312ZM72.28 68.64C72.904 70.2 73.736 72.02 74.152 72.644C74.828 73.684 74.828 73.84 74.1 73.84C73.684 73.84 72.956 73.268 72.488 72.54C71.916 71.656 71.188 71.24 70.148 71.24C69.004 71.24 68.484 71.604 68.016 72.54C67.132 74.464 66.456 74.1 67.236 72.124C69.732 66.3 70.408 65 70.772 65.364C70.98 65.572 71.656 67.08 72.28 68.64ZM24.492 80.132C25.22 81.276 25.064 82.056 23.868 82.888C22.724 83.668 22.724 83.668 23.66 85.124C24.18 85.904 25.012 86.892 25.428 87.256C26.156 87.828 26.104 87.88 24.96 87.776C24.18 87.672 23.244 86.944 22.464 85.8C20.8 83.304 20.28 83.304 20.28 85.748C20.28 86.944 20.072 87.88 19.76 87.88C19.448 87.88 19.24 86.268 19.24 84.032C19.24 81.9 19.032 79.976 18.72 79.82C17.472 79.04 18.408 78.728 21.112 79.04C22.776 79.248 24.18 79.664 24.492 80.132ZM33.02 79.82C34.008 80.756 34.32 81.64 34.32 83.2C34.32 88.556 27.508 89.648 26.208 84.5C25.064 80.028 29.9 76.648 33.02 79.82ZM58.916 82.004L61.1 84.812L61.256 81.9C61.516 77.324 62.4 78.572 62.4 83.512C62.4 88.66 62.348 88.66 58.656 83.876L56.42 80.912L56.108 84.552L55.848 88.14L55.744 83.824C55.692 81.38 55.432 79.56 55.12 79.56C54.86 79.56 54.6 79.352 54.6 79.092C54.6 77.896 56.94 79.456 58.916 82.004ZM75.868 79.04C76.388 79.3 77.376 80.86 78.052 82.524L79.248 85.488L80.704 82.16C81.536 80.392 82.316 79.04 82.472 79.196C82.732 79.456 79.82 86.736 79.092 87.516C78.884 87.724 78.156 86.528 77.532 84.916C76.856 83.252 75.868 81.12 75.348 80.184C74.308 78.416 74.412 78.208 75.868 79.04ZM91.104 81.848L93.6 84.5V81.744C93.6 80.288 93.86 79.04 94.12 79.04C94.432 79.04 94.64 80.912 94.64 83.564V88.14L92.664 85.852C91.624 84.552 90.324 83.044 89.856 82.472C88.972 81.432 88.972 81.484 88.92 84.344C88.92 85.956 88.712 87.464 88.4 87.62C88.088 87.828 87.88 86.424 87.88 83.772C87.88 81.328 87.672 79.56 87.36 79.56C87.1 79.56 86.84 79.352 86.84 79.04C86.84 78 88.764 79.248 91.104 81.848ZM38.896 82.264L40.352 85.488L41.756 82.264C43.784 77.844 44.72 77.948 44.72 82.732C44.72 84.76 44.98 86.84 45.24 87.412C45.916 88.608 45.136 88.764 43.992 87.568C43.472 87.048 43.16 85.8 43.108 84.084V81.38L41.756 84.344C41.028 86.008 40.248 87.36 40.092 87.36C39.884 87.36 39 85.904 38.168 84.136L36.66 80.964L36.348 84.552L36.088 88.14L35.984 83.564C35.88 77.896 36.712 77.48 38.896 82.264ZM52.208 83.148C52.988 85.176 53.872 86.84 54.132 86.84C54.392 86.84 54.6 87.048 54.6 87.36C54.6 88.296 53.56 87.932 52.312 86.58C51.168 85.332 47.84 84.708 47.84 85.696C47.84 85.956 47.476 86.58 47.008 87.152C46.28 88.088 46.228 88.088 46.592 86.892C47.32 84.292 49.92 78.988 50.336 79.248C50.596 79.404 51.428 81.172 52.208 83.148ZM69.368 83.148C70.148 85.176 71.032 86.84 71.292 86.84C71.552 86.84 71.76 87.048 71.76 87.36C71.76 88.296 70.72 87.932 69.472 86.58C68.328 85.332 65 84.708 65 85.696C65 85.956 64.636 86.58 64.168 87.152C63.44 88.088 63.388 88.088 63.752 86.892C64.48 84.292 67.08 78.988 67.496 79.248C67.756 79.404 68.588 81.172 69.368 83.148ZM85.28 82.836C85.28 85.176 85.54 86.892 85.956 87.308C86.476 87.828 86.372 87.932 85.54 87.776C84.604 87.62 84.448 87.1 84.24 83.304C84.032 80.08 84.136 79.04 84.656 79.04C85.072 79.04 85.28 80.132 85.28 82.836ZM98.28 82.836C98.28 85.176 98.54 86.892 98.956 87.308C99.476 87.828 99.32 87.932 98.28 87.776C97.032 87.62 96.98 87.464 96.824 83.304C96.72 79.768 96.824 79.04 97.5 79.04C98.124 79.04 98.28 79.768 98.28 82.836Z" fill="#ECECEC"/>
<path d="M54.184 68.9002C53.352 70.7202 53.352 70.7202 54.86 70.7202C56.316 70.7202 56.42 70.4602 55.484 68.7442L54.808 67.5482L54.184 68.9002Z" fill="#ECECEC"/>
<path d="M69.3166 69.1602C68.7446 70.6162 68.7966 70.7202 69.9926 70.7202C71.3446 70.7202 71.6046 69.8362 70.5646 68.4842C69.9926 67.6522 69.8886 67.7042 69.3166 69.1602Z" fill="#ECECEC"/>
<path d="M20.2803 81.3802C20.2803 82.6282 20.5403 83.2002 21.0083 83.2002C21.7883 83.2002 23.4003 81.8482 23.4003 81.1722C23.4003 80.4962 22.1523 79.5602 21.2163 79.5602C20.4883 79.5602 20.2803 79.9762 20.2803 81.3802Z" fill="#ECECEC"/>
<path d="M28.0285 80.9639C27.0405 83.6159 28.3405 87.3599 30.2645 87.3599C31.3565 87.3599 32.7605 85.1759 32.7605 83.4079C32.7605 80.7039 31.9805 79.5599 30.1085 79.5599C28.9125 79.5599 28.4445 79.8719 28.0285 80.9639Z" fill="#ECECEC"/>
<path d="M49.0363 82.6802C48.4643 84.1362 48.5163 84.2402 49.7123 84.2402C51.1163 84.2402 51.2203 83.9802 50.2843 82.3162L49.6083 81.1202L49.0363 82.6802Z" fill="#ECECEC"/>
<path d="M66.1965 82.6802C65.6245 84.1362 65.6765 84.2402 66.8725 84.2402C68.2765 84.2402 68.3805 83.9802 67.4445 82.3162L66.7685 81.1202L66.1965 82.6802Z" fill="#ECECEC"/>
</g>
<defs>
<clipPath id="clip0_10_99">
<rect width="117" height="117" fill="white"/>
</clipPath>
</defs>
</svg>
