<svg width="95" height="74" viewBox="0 0 95 74" fill="none" xmlns="http://www.w3.org/2000/svg">
<g filter="url(#filter0_d_11_173)">
<path d="M43.1406 1.62181C42.6083 2.2073 41.4374 3.11213 40.5325 3.53794C38.4567 4.65568 38.1374 5.18793 38.7761 6.67825C40.7987 11.096 57.8309 12.9589 57.8309 8.80728C57.8309 8.11534 57.3518 7.15728 56.7664 6.62503C56.2341 6.146 55.4889 4.9218 55.1696 3.96374C53.9986 0.45085 51.1777 1.35569 49.0486 5.98632L47.8244 8.75405L47.7712 6.09277C47.6648 1.30246 45.4293 -0.879792 43.1406 1.62181Z" fill="#961515"/>
<path d="M38.8278 11.8945C36.6988 12.8525 36.6456 13.917 38.402 16.1525C39.1472 17.0574 40.3182 18.4944 41.0633 19.3993L42.2875 20.996L43.8843 19.5057C44.7359 18.7073 45.7472 17.0041 46.1198 15.7799L46.8649 13.5445L47.4504 16.8444C48.0891 20.2509 48.9407 21.7944 50.1117 21.7944C50.431 21.7944 51.7085 20.8896 52.8794 19.7719C54.1036 18.7073 55.4342 17.4832 55.9133 17.1106C57.4036 15.8864 56.6584 14.6622 53.4117 13.0654C50.8568 11.788 49.5262 11.5219 45.4278 11.309C41.8617 11.2025 40.052 11.3622 38.8278 11.8945Z" fill="#961515"/>
<path d="M46.5464 18.9203C46.2803 19.1332 46.1738 22.4332 46.1738 26.2654C46.2271 32.1203 46.3335 32.8122 46.7061 30.6832C47.2916 27.7557 47.1319 18.2816 46.5464 18.9203Z" fill="#961515"/>
<path d="M33.0807 38.561C30.5258 41.0626 31.9629 46.3319 35.1032 46.2255H36.2742L35.1032 45.7464C34.4645 45.4803 33.6661 44.7351 33.3468 44.0964C32.6016 42.819 32.9742 39.6787 33.9323 38.5077C34.8903 37.3368 37.4452 37.6029 38.35 38.9335C39.0419 39.8916 39.2016 39.9448 39.2016 39.2529C39.2016 37.0174 34.9968 36.5916 33.0807 38.561Z" fill="#ECECEC"/>
<path d="M49.9529 37.8689C48.6754 39.1463 49.2609 40.6899 51.7093 42.4463C53.3061 43.564 53.998 44.3624 53.7851 44.9479C53.3593 46.0656 50.5916 45.9592 49.8996 44.7882C49.3674 43.9366 49.3674 43.9366 49.3141 44.7882C49.3141 45.906 51.3899 46.5447 53.3061 46.0656C55.3286 45.5334 55.169 42.8721 53.0932 41.7544C50.5916 40.477 49.6867 39.3592 50.4319 38.5076C51.3367 37.3899 52.8803 37.6028 53.7851 38.9334C54.477 39.8915 54.6367 39.9447 54.6367 39.2528C54.6367 37.5495 51.2303 36.5915 49.9529 37.8689Z" fill="#ECECEC"/>
<path d="M59.268 37.9753C59.1083 38.4012 59.4277 39.6786 59.9599 40.7963L60.918 42.8189L59.5874 42.9786C57.8841 43.1915 57.618 42.9253 58.3632 41.4882C58.6825 40.8495 58.8954 40.2108 58.7357 40.1044C58.6293 39.9979 57.8841 41.3818 57.139 43.1915C56.3406 45.0544 56.0745 46.0656 56.5003 45.5334C56.9261 44.9479 57.2987 44.3092 57.2987 44.0431C57.2987 43.8302 58.2035 43.6173 59.3212 43.6173C60.8648 43.6173 61.397 43.8834 61.8228 44.7882C62.1422 45.4802 62.8341 46.0656 63.4196 46.1721C64.1115 46.2785 64.2712 46.1721 63.8454 45.906C63.4728 45.6398 62.4615 43.6705 61.5567 41.4882C59.6938 36.9641 59.6406 36.9108 59.268 37.9753Z" fill="#ECECEC"/>
<path d="M43.1929 39.4122C42.7139 40.317 42.4478 41.1687 42.5542 41.3283C42.7139 41.4348 42.98 41.009 43.1929 40.3703L43.5655 39.1993L44.3107 40.4767C45.3752 42.3928 45.2155 43.0848 43.7252 43.0848C42.98 43.0848 42.3945 42.8187 42.3945 42.4461C42.3945 42.1267 42.2881 41.967 42.1284 42.0735C41.7026 42.5525 40.2655 46.2783 40.5316 46.2783C40.6913 46.2783 41.0639 45.6928 41.33 44.9477C41.7558 43.8832 42.1816 43.617 43.672 43.617C45.0026 43.617 45.6945 43.9364 46.3332 44.9477C46.8123 45.6928 47.6107 46.2783 48.0897 46.2783C48.8881 46.2783 48.8881 46.2251 48.1961 45.5864C47.7171 45.267 46.7058 43.3509 45.9074 41.3283C45.0558 39.359 44.3107 37.7622 44.2042 37.7622C44.0978 37.7622 43.6187 38.5074 43.1929 39.4122Z" fill="#ECECEC"/>
<path d="M17.1134 51.6009C15.357 52.2928 14.5586 53.6235 14.5586 55.9654C14.5586 57.7219 14.8779 58.467 15.9957 59.4251C17.8054 60.9686 19.0828 60.9686 20.9457 59.3719C24.4586 56.338 21.3183 49.8977 17.1134 51.6009ZM19.9344 52.4525C22.2231 54.0493 21.1053 60.117 18.5505 60.117C15.8892 60.117 14.665 54.8477 16.8473 52.6654C18.1247 51.388 18.3908 51.388 19.9344 52.4525Z" fill="#ECECEC"/>
<path d="M7.15968 55.8593C7.26613 58.2013 7.58548 60.1174 7.85161 60.1174C8.11774 60.1174 8.33064 59.2658 8.33064 58.2545C8.33064 55.9126 9.12903 55.8593 10.5129 58.2013C11.0984 59.2125 12.0032 60.1174 12.5355 60.2771C13.4403 60.49 13.3871 60.3303 12.2693 58.6271C10.779 56.4448 10.7258 56.0722 11.7903 55.6464C12.7484 55.2738 12.8548 53.1448 11.95 52.24C11.5774 51.8674 10.3532 51.6013 9.18225 51.6013H7L7.15968 55.8593ZM11.1516 53.3045C11.8435 54.369 10.8322 55.8593 9.34193 55.8593C8.54354 55.8593 8.33064 55.4867 8.33064 53.9432C8.33064 52.2932 8.49032 52.0803 9.44838 52.24C10.0871 52.3464 10.8855 52.7722 11.1516 53.3045Z" fill="#ECECEC"/>
<path d="M24.4048 55.9654L24.5113 60.3832L24.7774 56.6574L25.0968 52.9316L26.6935 56.4977C28.1306 59.6912 29.0887 60.9686 29.0887 59.638C29.0887 59.3719 29.7274 57.7751 30.579 56.0719L32.0161 52.9316L32.2822 56.6041C32.6548 62.0332 33.6661 61.6074 33.4532 56.1251C33.2403 50.6961 32.4419 50.2171 30.6855 54.5283C30.0467 56.1783 29.3016 57.6154 29.0355 57.7219C28.8226 57.8816 27.9709 56.5509 27.1726 54.7945C25.0968 50.1638 24.2984 50.5364 24.4048 55.9654Z" fill="#ECECEC"/>
<path d="M38.2435 52.6651C37.9774 53.4103 37.1258 55.4328 36.3274 57.1893C35.5822 58.9457 35.3693 59.8506 35.7951 59.1586C36.9661 57.5619 40.5855 57.4554 41.0645 59.0522C41.2242 59.6377 41.7032 60.1167 42.129 60.1167C42.6613 60.1167 42.5548 59.478 41.65 57.5619C41.0113 56.178 40.1064 54.2087 39.6274 53.1974L38.7758 51.3345L38.2435 52.6651ZM39.4677 55.9651C39.7871 57.2957 39.7338 57.4554 38.4564 57.4554C36.9129 57.4554 36.8064 57.0828 37.7113 55.0603C38.4032 53.5167 38.9355 53.8361 39.4677 55.9651Z" fill="#ECECEC"/>
<path d="M44.5244 55.9651L44.7373 60.3828L45.0567 56.9764L45.3228 53.5167L47.6647 56.4441C48.9954 57.9877 50.2196 59.5312 50.4325 59.7441C50.6454 60.0102 50.805 58.2006 50.7518 55.7522C50.7518 51.6006 50.6986 51.4941 50.4325 54.4748L50.1131 57.6683L47.7712 54.6344C46.4938 52.9844 45.1631 51.6006 44.8438 51.6006C44.418 51.6006 44.3115 52.9312 44.5244 55.9651Z" fill="#ECECEC"/>
<path d="M55.808 52.6651C55.5418 53.4103 54.6902 55.4328 53.8919 57.1893C53.1467 58.9457 52.9338 59.8506 53.3596 59.1586C54.5306 57.5619 58.1499 57.4554 58.6289 59.0522C58.7886 59.6377 59.2676 60.1167 59.6935 60.1167C60.2257 60.1167 60.1193 59.478 59.2144 57.5619C58.5757 56.178 57.6709 54.2087 57.1918 53.1974L56.3402 51.3345L55.808 52.6651ZM57.0322 55.9651C57.3515 57.2957 57.2983 57.4554 56.0209 57.4554C54.4773 57.4554 54.3709 57.0828 55.2757 55.0603C55.9677 53.5167 56.4999 53.8361 57.0322 55.9651Z" fill="#ECECEC"/>
<path d="M65.4948 54.1022C66.1335 55.4861 67.0384 57.5086 67.5174 58.5199L68.369 60.3828L70.2851 56.178C71.3496 53.8361 72.0948 51.8667 71.9883 51.7603C71.7754 51.4941 69.9658 55.3264 69.2738 57.4554C68.9545 58.5199 68.6884 58.2006 67.198 55.2731C65.2819 51.3345 63.7916 50.3232 65.4948 54.1022Z" fill="#ECECEC"/>
<path d="M73.7969 55.8586C73.7969 58.8925 74.0098 60.1167 74.4888 60.1167C74.9678 60.1167 75.0743 58.999 74.9678 55.8586C74.8614 53.5167 74.542 51.6006 74.2759 51.6006C74.0098 51.6006 73.7969 53.5167 73.7969 55.8586Z" fill="#ECECEC"/>
<path d="M77.5774 52.5054C78.0032 53.0377 78.7484 53.9425 79.2807 54.528C79.8129 55.1135 81.0371 56.6038 81.9419 57.828C82.9 59.0522 83.8048 60.1167 84.071 60.1167C84.2839 60.1167 84.3903 58.1473 84.3371 55.699L84.2839 51.3345L83.9645 54.7409L83.6452 58.1473L81.0903 54.8474C79.6532 53.0909 78.1629 51.6006 77.6839 51.6006C76.992 51.6006 76.9387 51.707 77.5774 52.5054Z" fill="#ECECEC"/>
<path d="M86.6793 55.6992C86.7858 57.9347 87.1051 59.8508 87.3713 59.9572C87.6906 60.0637 87.8503 58.5201 87.7438 55.8589C87.6374 53.5169 87.318 51.6008 87.0519 51.6008C86.7326 51.6008 86.5729 53.304 86.6793 55.6992Z" fill="#ECECEC"/>
</g>
<defs>
<filter id="filter0_d_11_173" x="0.338707" y="0.576172" width="94.099" height="73.3226" filterUnits="userSpaceOnUse" color-interpolation-filters="sRGB">
<feFlood flood-opacity="0" result="BackgroundImageFix"/>
<feColorMatrix in="SourceAlpha" type="matrix" values="0 0 0 0 0 0 0 0 0 0 0 0 0 0 0 0 0 0 127 0" result="hardAlpha"/>
<feOffset dy="6.66129"/>
<feGaussianBlur stdDeviation="3.33065"/>
<feComposite in2="hardAlpha" operator="out"/>
<feColorMatrix type="matrix" values="0 0 0 0 0 0 0 0 0 0 0 0 0 0 0 0 0 0 0.25 0"/>
<feBlend mode="normal" in2="BackgroundImageFix" result="effect1_dropShadow_11_173"/>
<feBlend mode="normal" in="SourceGraphic" in2="effect1_dropShadow_11_173" result="shape"/>
</filter>
</defs>
</svg>
