<svg width="91" height="61" viewBox="0 0 91 61" fill="none" xmlns="http://www.w3.org/2000/svg">
<path d="M67 1.50007C65.6 2.30007 62 3.40007 59 4.10007C51.2 5.70007 44 9.50007 44 12.0001C44 13.8001 44.7 14.0001 49.9 14.0001C55.2 14.0001 56.3 13.6001 60 10.5001C66.6 5.00007 66.1 6.50007 59.3 12.9001C55.8 16.1001 53 19.2001 53 19.8001C53 21.1001 58.2 22.9001 64.5 23.6001C70.1 24.3001 80.4 22.1001 85.5 19.2001C93.8 14.3001 92.3 5.40007 82.8 2.50007C78.4 1.20007 77.9 1.30007 75.3 3.30007C72.7 5.30007 72.6 5.30007 74.3 3.40007C75.2 2.30007 76 1.00007 76 0.700073C76 -0.499927 69.6 7.28886e-05 67 1.50007ZM86.7 7.20007C91.2 11.4001 88.4 17.9001 81.4 19.6001C79.1 20.2001 69 17.4001 69 16.2001C69 15.9001 71.3 13.2001 74.2 10.3001C80 4.40007 82.9 3.70007 86.7 7.20007ZM58.2 10.0001C55.5 12.5001 51 14.1001 51 12.6001C51 11.9001 59.4 7.00007 60.5 7.00007C61.1 7.00007 60 8.40007 58.2 10.0001ZM67.7 14.7001C67.3 16.4001 67.3 16.4001 66.5 14.7001C66.1 13.8001 66.1 12.2001 66.5 11.2001C67.3 9.60007 67.3 9.60007 67.7 11.2001C68 12.2001 68 13.8001 67.7 14.7001ZM76 21.1001C76 22.2001 67 23.0001 62.8 22.4001L58.9 21.7001L61.5 19.0001L64.2 16.2001L70.1 18.4001C73.3 19.5001 76 20.8001 76 21.1001Z" fill="#ECECEC"/>
<path d="M18.5 27.4C12.8 29.9 11.4 36.9 15.6 41.9C17.8 44.5 18.9 45 22.6 45C28.6 45 32 41.8 32 36.1C32 28.7 25.2 24.3 18.5 27.4ZM27.2 31.7C31 35.1 28.3 42 23.1 42C19.9 42 18.7 41.2 17.1 38.3C15.6 35.3 15.7 34.3 18 32C20.4 29.6 24.7 29.4 27.2 31.7Z" fill="#ECECEC"/>
<path d="M0 36C0 43.3 0.3 45 1.5 45C2.6 45 3 43.9 3 41C3 37.1 3.1 37 6.5 37C8.9 37 10 36.5 10 35.5C10 34.5 8.9 34 6.5 34C3.7 34 3 33.6 3 32C3 30.3 3.7 30 7.5 30C10.8 30 12 29.6 12 28.5C12 27.3 10.7 27 6 27H0V36Z" fill="#ECECEC"/>
<path d="M34 28.4C34 29.4 35.4 30 38.5 30.2L43 30.5L38.5 37.2C36 40.9 34 44.2 34 44.5C34 44.8 35.4 45 37 45H40V53C40 59.4 40.3 61 41.5 61C42.7 61 43 59.4 43 53V45H46C48 45 49 44.5 49 43.5C49 42.4 47.8 42 44.5 42C42 42 40 41.8 40 41.4C40 41.1 41.7 38.3 43.8 35.2C45.9 32.1 48 28.9 48.4 28.2C48.9 27.3 47.3 27 41.6 27C35.6 27 34 27.3 34 28.4Z" fill="#ECECEC"/>
<path d="M51 49.2998C51 55.6998 51.3 56.8998 53.3 58.7998C56.3 61.5998 61.3 61.6998 64 58.9998C65.6 57.3998 66 55.6998 66 49.4998C66 43.4998 65.7 41.9998 64.5 41.9998C63.3 41.9998 63 43.3998 63 48.7998C63 55.7998 62 57.9998 58.9 57.9998C55.4 57.9998 54 55.1998 54 48.3998C54 43.3998 53.7 41.9998 52.5 41.9998C51.3 41.9998 51 43.4998 51 49.2998Z" fill="#ECECEC"/>
<path d="M71.2 50.6C69.4 55.3 68 59.6 68 60.1C68 61.6 70.7 61.1 71.4 59.5C72.2 57.4 79.8 57.4 80.6 59.5C81 60.3 82.1 61 83.1 61C84.8 61 84.7 60.3 81.6 51.7C79.1 44.7 77.8 42.4 76.3 42.2C74.6 41.9 73.8 43.3 71.2 50.6ZM77.9 51.1C79.3 55.2 79.4 55 76.5 55C73.9 55 73.6 54.1 74.6 50.2C75.5 47.1 76.6 47.4 77.9 51.1Z" fill="#ECECEC"/>
</svg>
