<svg width="84" height="60" viewBox="0 0 84 60" fill="none" xmlns="http://www.w3.org/2000/svg">
<g clip-path="url(#clip0_11_241)">
<path d="M34.326 0.920862C32.6516 1.73016 29.833 4.21389 28.0191 6.44644C26.9028 7.81389 24.5586 13.3674 24.5586 14.6232C24.5586 14.8744 24.8656 15.1255 25.2563 15.2371C25.9539 15.4046 29.526 15.1255 29.9446 14.8744C30.0842 14.7906 30.447 14.1488 30.7539 13.4232C31.8144 11.0232 34.2702 7.95342 34.7725 8.45575C34.8284 8.48365 34.8842 13.0604 34.8842 18.5581C34.94 30.1116 34.9679 29.9999 32.7912 27.0418C32.0656 26.065 31.3121 24.865 31.1167 24.3906C30.4749 22.8557 29.6377 22.5209 27.2098 22.7441C25.2842 22.9116 25.0888 22.9953 24.9493 23.6371C24.6423 24.7534 26.9307 29.665 28.4656 31.2278C30.6702 33.4883 32.4284 34.8557 34.6888 35.9999C36.5028 36.9209 37.2005 37.1162 38.5121 37.1162C39.74 37.1162 40.1586 37.0046 40.2981 36.6697C40.3818 36.4185 40.4656 32.7906 40.4656 28.5767V20.9302L41.1353 20.7627C41.4981 20.679 42.1121 20.6511 42.447 20.7069L43.1167 20.7906L43.2563 28.8837C43.34 33.3209 43.4516 37.0046 43.4795 37.0325C43.5074 37.0883 44.2609 37.1162 45.1818 37.1162C47.9167 37.1162 51.6284 34.9674 55.2563 31.2278C56.7912 29.665 59.0795 24.7534 58.7725 23.6371C58.633 22.9953 58.4377 22.9116 56.5121 22.7441C54.1121 22.5209 53.247 22.8557 52.5772 24.3627C52.0749 25.5627 50.1772 28.2139 49.6191 28.5767C49.34 28.7441 49.0609 28.7999 48.9772 28.6883C48.8098 28.5209 48.7818 8.62319 48.9493 8.45575C49.4516 7.95342 51.9074 10.9953 52.9679 13.4232C53.2749 14.1488 53.6377 14.7906 53.7772 14.8744C54.1958 15.1534 57.7679 15.4046 58.4935 15.2371C59.1632 15.0697 59.1912 14.9581 59.0237 14.0092C58.6888 12.1395 56.7353 7.73016 55.6749 6.41854C55.3679 6.02784 54.2516 4.85575 53.1632 3.76737C50.5679 1.17203 48.2516 -6.7994e-05 45.6842 -6.7994e-05C44.233 -6.7994e-05 43.8423 0.0836529 43.6749 0.474351C43.5353 0.75342 43.3958 4.32551 43.3121 8.42784L43.2005 15.9069H41.8609H40.5214L40.4098 8.42784C40.326 4.32551 40.1865 0.75342 40.0749 0.474351C39.8795 0.0836529 39.4888 -6.7994e-05 37.9818 -6.7994e-05C36.5028 0.027839 35.8051 0.195281 34.326 0.920862Z" fill="#ECECEC"/>
<path d="M0 54.8372V60H0.697674C1.36744 60 1.39535 59.9442 1.39535 57.907C1.39535 56.0093 1.45116 55.814 1.95349 55.814C2.45581 55.814 2.51163 56.0093 2.51163 57.907V60H3.34884H4.18605V54.8372V49.6744H3.34884H2.51163V51.907C2.51163 53.9442 2.45581 54.1395 1.95349 54.1395C1.45116 54.1395 1.39535 53.9442 1.39535 51.907C1.39535 49.7023 1.39535 49.6744 0.697674 49.6744H0V54.8372Z" fill="#ECECEC"/>
<path d="M5.02344 54.8372V60H7.256H9.48855V59.1628C9.48855 58.3535 9.46065 58.3256 8.09321 58.3256H6.69786V57.0698C6.69786 55.9256 6.75367 55.814 7.39553 55.814C7.98158 55.814 8.09321 55.6744 8.09321 54.9767C8.09321 54.2791 7.98158 54.1395 7.39553 54.1395C6.75367 54.1395 6.69786 54.0558 6.69786 52.7442V51.3488H8.09321C9.46065 51.3488 9.48855 51.3209 9.48855 50.5116V49.6744H7.256H5.02344V54.8372Z" fill="#ECECEC"/>
<path d="M10.3252 54.8372V60H11.1624H11.9996L12.0275 57.8233L12.0554 55.6744L12.474 57.0698C12.6973 57.8233 12.9485 58.8 13.0322 59.2465C13.1717 59.8884 13.3112 60 14.1205 60C14.7345 60 15.0136 59.8884 14.9578 59.6651C14.874 59.4698 14.6229 58.3814 14.3717 57.2651C13.9252 55.3395 13.9252 55.2 14.3717 54.6977C15.0694 53.9163 15.2089 52.1581 14.6787 51.0977C14.1205 50.0651 13.2833 49.6744 11.5531 49.6744H10.3252V54.8372ZM12.781 51.5721C13.4229 51.9907 13.3112 53.3023 12.6415 53.7767C11.9996 54.1953 11.9996 54.1953 11.9996 52.7721C11.9996 51.3488 12.1112 51.1535 12.781 51.5721Z" fill="#ECECEC"/>
<path d="M15.9072 54.8372V60H17.4421C20.0654 60 20.6514 58.9953 20.6514 54.5581C20.6514 51.7116 20.6235 51.6279 19.7863 50.6512C19.0049 49.7581 18.7816 49.6744 17.4142 49.6744H15.9072V54.8372ZM18.6979 52.214C18.8654 52.493 18.977 53.7488 18.977 55.0047C18.977 56.7628 18.8654 57.4326 18.5026 57.8233C18.2514 58.1023 17.9444 58.3256 17.8049 58.3256C17.6933 58.3256 17.5816 56.7628 17.5816 54.8372C17.5816 51.8512 17.6375 51.3767 18.0002 51.5163C18.2514 51.6279 18.5584 51.9349 18.6979 52.214Z" fill="#ECECEC"/>
<path d="M22.8005 50.5674C22.7167 51.0698 22.5493 52.1023 22.4656 52.8837C22.2702 54.3907 21.8237 57.6558 21.6005 59.0791C21.4609 59.9442 21.5167 60 22.2702 60C22.9121 60 23.1354 59.8605 23.2749 59.3023C23.4981 58.4093 23.8888 58.4093 24.1121 59.3023C24.2516 59.8605 24.4749 60 25.1167 60C25.926 60 25.954 59.9721 25.8144 58.9395C25.2563 55.1163 24.5586 50.0651 24.5586 49.8698C24.5586 49.7581 24.1958 49.6744 23.7493 49.6744C23.0516 49.6744 22.9121 49.814 22.8005 50.5674Z" fill="#ECECEC"/>
<path d="M26.791 54.8372V60H28.4654C30.084 60 30.1399 59.9721 30.8654 58.9116C31.5631 57.8512 31.591 57.6558 31.4794 54.586C31.3957 51.4884 31.3678 51.3488 30.5864 50.5395C29.8608 49.786 29.5538 49.6744 28.2701 49.6744H26.791V54.8372ZM29.5817 52.214C29.7492 52.493 29.8608 53.7488 29.8608 55.0047C29.8608 56.7628 29.7492 57.4326 29.3864 57.8233C29.1352 58.1023 28.8282 58.3256 28.6887 58.3256C28.5771 58.3256 28.4654 56.7628 28.4654 54.8372C28.4654 51.8512 28.5212 51.3767 28.884 51.5163C29.1352 51.6279 29.4422 51.9349 29.5817 52.214Z" fill="#ECECEC"/>
<path d="M32.3721 54.8372V60H34.6046H36.8372V59.1628C36.8372 58.3535 36.8093 58.3256 35.4418 58.3256H34.0465V57.0698C34.0465 55.9256 34.1023 55.814 34.7442 55.814C35.3302 55.814 35.4418 55.6744 35.4418 54.9767C35.4418 54.2791 35.3302 54.1395 34.7442 54.1395C34.1023 54.1395 34.0465 54.0558 34.0465 52.7442V51.3488H35.4418C36.8093 51.3488 36.8372 51.3209 36.8372 50.5116V49.6744H34.6046H32.3721V54.8372Z" fill="#ECECEC"/>
<path d="M47.721 50.2605C47.0513 50.8186 47.0233 50.986 46.9396 54.6698C46.8559 58.214 46.8838 58.5209 47.442 59.2465C47.9443 59.8884 48.2513 60 49.3954 60C50.8745 60 51.628 59.386 51.628 58.1302C51.628 57.6 51.4885 57.4884 50.7908 57.4884C50.2327 57.4884 49.9536 57.6279 49.9536 57.907C49.9536 58.4651 48.9489 58.4372 48.7257 57.8791C48.642 57.6279 48.5582 56.1488 48.5582 54.5581C48.5582 52.1023 48.614 51.6558 49.0327 51.5163C49.3396 51.4047 49.6466 51.4884 49.842 51.7395C50.0094 51.9907 50.4838 52.186 50.9024 52.186C51.8233 52.186 51.8792 51.4605 51.042 50.4C50.3164 49.4791 48.7536 49.4233 47.721 50.2605Z" fill="#ECECEC"/>
<path d="M52.4648 54.8372V60H54.6974H56.93V59.1628C56.93 58.3535 56.9021 58.3256 55.5346 58.3256H54.1393V57.0698C54.1393 55.9256 54.1951 55.814 54.8369 55.814C55.423 55.814 55.5346 55.6744 55.5346 54.9767C55.5346 54.2791 55.423 54.1395 54.8369 54.1395C54.1951 54.1395 54.1393 54.0558 54.1393 52.7442V51.3488H55.5346C56.9021 51.3488 56.93 51.3209 56.93 50.5116V49.6744H54.6974H52.4648V54.8372Z" fill="#ECECEC"/>
<path d="M57.7676 54.8372V60H59.4141C60.9211 60 61.1443 59.9163 61.7862 59.1349C62.6234 58.1581 62.735 56.7907 62.0932 55.5349C61.7862 54.9209 61.7583 54.5581 61.9815 53.8605C62.4001 52.6884 62.1211 51.1535 61.3676 50.3442C60.8653 49.814 60.4466 49.6744 59.2466 49.6744H57.7676V54.8372ZM60.5583 52.3535C60.5583 52.9395 60.028 53.8605 59.7211 53.8605C59.5536 53.8605 59.442 53.3023 59.442 52.6047C59.442 51.4047 59.4699 51.3488 60.0001 51.6279C60.3071 51.7953 60.5583 52.1302 60.5583 52.3535ZM60.6699 56.2605C60.9769 57.0698 60.8373 57.9907 60.3908 58.1581C59.5815 58.4651 59.442 58.3256 59.442 57.0698C59.442 56.0372 59.5257 55.814 59.9722 55.814C60.2513 55.814 60.5862 56.0093 60.6699 56.2605Z" fill="#ECECEC"/>
<path d="M64.2137 50.2047C63.4602 50.9581 63.2928 52.1581 63.4044 55.7581C63.516 59.4698 63.823 60 65.8044 60C67.8974 60 68.0928 59.5535 68.0928 54.8372C68.0928 51.0698 68.0649 50.8465 67.4509 50.2884C66.6137 49.507 64.9672 49.4512 64.2137 50.2047ZM66.3626 54.8093C66.4184 57.6 66.3626 58.0744 65.9719 58.2419C65.7207 58.3256 65.4137 58.2419 65.2742 58.0186C64.8835 57.4047 64.9672 52.0744 65.3579 51.6837C66.0835 50.9581 66.2788 51.5721 66.3626 54.8093Z" fill="#ECECEC"/>
<path d="M69.126 49.8698C69.0144 49.9535 68.9307 52.2977 68.9307 55.0326V60H71.1911H73.4237L73.34 59.2465C73.2562 58.5488 73.1446 58.4651 72.0842 58.3814L70.8842 58.2977V53.9721V49.6744H70.1028C69.6562 49.6744 69.2097 49.7581 69.126 49.8698Z" fill="#ECECEC"/>
<path d="M75.516 50.8465C75.4044 51.5163 75.1533 53.4977 74.93 55.2558C74.6788 57.014 74.4277 58.8279 74.3719 59.2465C74.2602 60 74.2881 60.0279 75.1533 59.9442C75.823 59.8884 76.0742 59.7209 76.13 59.2186C76.2416 58.4093 76.6323 58.4372 76.8556 59.3023C76.9951 59.8605 77.2184 60 77.8602 60C78.8091 60 78.8091 59.9442 78.4463 57.7395C78.3067 56.9023 78.0556 55.0326 77.8602 53.5814C77.3858 49.5907 77.4137 49.6744 76.4649 49.6744C75.7393 49.6744 75.6556 49.7581 75.516 50.8465Z" fill="#ECECEC"/>
<path d="M79.5352 54.8372V60H81.6282H83.7212V59.1628C83.7212 58.3535 83.6654 58.3256 82.4654 58.3256H81.2096V54V49.6744H80.3724H79.5352V54.8372Z" fill="#ECECEC"/>
<path d="M39.3486 54.9769V57.2095H40.13C41.2742 57.2095 41.5812 56.7351 41.5812 54.9211C41.5812 53.2188 41.2184 52.7444 39.9347 52.7444C39.4044 52.7444 39.3486 52.9118 39.3486 54.9769Z" fill="#ECECEC"/>
<path d="M42.4462 53.1347C42.2508 53.3858 42.1392 54.2509 42.195 55.3114C42.2788 57.0137 42.3067 57.0695 43.0881 57.1533C43.5346 57.2091 43.9811 57.0974 44.1206 56.8742C44.4834 56.316 44.4276 53.4695 44.0369 53.0788C43.5904 52.6323 42.8369 52.6602 42.4462 53.1347ZM43.3113 54.9765C43.2555 55.5905 43.1439 56.0928 43.0881 56.0928C43.0322 56.0928 42.9764 55.5905 42.9764 54.9765C42.9764 54.3626 43.0601 53.8602 43.1997 53.8602C43.3113 53.8602 43.3671 54.3626 43.3113 54.9765Z" fill="#ECECEC"/>
</g>
<defs>
<clipPath id="clip0_11_241">
<rect width="83.7209" height="60" fill="white"/>
</clipPath>
</defs>
</svg>
