<svg width="173" height="38" viewBox="0 0 173 38" fill="none" xmlns="http://www.w3.org/2000/svg">
<path d="M88.5921 32.9637C87.9719 33.2644 87.69 33.5651 87.4082 34.204C86.5061 36.2148 87.8028 38 90.133 38C92.0874 38 93.0834 37.0604 93.0834 35.2376C93.0834 34.4107 92.9894 34.1476 92.5008 33.6027C91.5612 32.5127 90.0015 32.2684 88.5921 32.9637ZM91.1854 33.9597C91.7867 34.2604 91.9558 34.5798 91.9558 35.4443C91.9558 37.2107 89.0806 37.5866 88.3853 35.9329C87.7464 34.3919 89.5692 33.1141 91.1854 33.9597Z" fill="#C1966B"/>
<path d="M55.1234 35.3691V38H55.5932H56.063V35.3691V32.7382H55.5932H55.1234V35.3691Z" fill="#C1966B"/>
<path d="M62.8282 35.3691V38H63.392H63.937L63.9934 36.459L64.0497 34.8993L64.9518 36.4403C65.4403 37.3047 65.9665 38 66.0981 38C66.2484 38 66.7746 37.3047 67.282 36.4403L68.184 34.8993L68.2404 36.4403L68.2967 38H68.8417H69.4055V35.3503V32.7194L68.8041 32.7758C68.2592 32.8322 68.09 33.0013 67.2444 34.4671C66.7182 35.3691 66.2296 36.1584 66.1732 36.2148C66.1169 36.2711 65.5907 35.5194 65.0081 34.5235C64.0497 32.9073 63.8806 32.7382 63.392 32.7382H62.8282V35.3691Z" fill="#C1966B"/>
<path d="M76.1707 35.3691V38H76.6405C77.0727 38 77.1103 37.9436 77.1103 37.0604V36.1208H78.4257C79.5908 36.1208 79.8163 36.0644 80.211 35.651C80.568 35.3127 80.6808 34.9933 80.6808 34.4295C80.6808 33.8657 80.568 33.5463 80.211 33.208C79.7975 32.7758 79.6096 32.7382 77.9559 32.7382H76.1707V35.3691ZM79.4405 34.0912C79.8163 34.7114 79.3653 35.0872 78.1626 35.1436L77.1103 35.2V34.4295V33.659L78.1626 33.7154C78.9331 33.753 79.2901 33.8657 79.4405 34.0912Z" fill="#C1966B"/>
<path d="M99.6608 35.3691V38H100.225C100.788 38 100.788 37.9812 100.788 36.9664V35.9329H101.596C102.329 35.9329 102.423 36.008 103.119 36.9664C103.757 37.8685 103.945 38 104.49 38C104.829 38 105.11 37.9248 105.11 37.8309C105.11 37.7369 104.791 37.2671 104.378 36.7597L103.663 35.8577L104.096 35.5007C104.753 34.9933 104.735 33.659 104.058 33.1329C103.626 32.7946 103.288 32.7382 101.615 32.7382H99.6608V35.3691ZM103.119 33.7906C103.476 33.9221 103.513 34.4483 103.194 34.7678C103.062 34.8993 102.48 34.9933 101.878 34.9933H100.788V34.3355V33.6778H101.803C102.367 33.6778 102.949 33.7342 103.119 33.7906Z" fill="#C1966B"/>
<path d="M110.748 33.208C110.748 33.659 110.786 33.6778 111.97 33.6778H113.191V35.8389V38H113.755H114.319V35.8389V33.6778H115.54C116.724 33.6778 116.762 33.659 116.762 33.208V32.7382H113.755H110.748V33.208Z" fill="#C1966B"/>
<path d="M8.08059 0.426977C5.9383 1.06591 4.39735 1.98672 2.91277 3.47129C0.751683 5.63238 0 7.4928 0 10.7062C0 13.9197 0.751683 15.7613 2.93156 17.9788C4.41614 19.4821 6.37051 20.5721 8.64436 21.1546C10.1665 21.5493 13.3988 21.5493 14.8457 21.1546C15.4095 21.0043 15.8793 20.8916 15.8981 20.9103C16.0296 21.211 18.3035 24.2365 18.3974 24.2365C18.5854 24.2365 20.8592 22.6392 20.8592 22.4889C20.8592 22.4137 20.3894 21.7184 19.8069 20.9291C18.8297 19.5949 18.7733 19.4821 19.0928 19.2942C19.7881 18.9372 21.8928 16.607 22.4002 15.6674C23.1706 14.2392 23.5089 12.717 23.5089 10.7062C23.5089 7.53038 22.7384 5.63238 20.5773 3.47129C18.2095 1.0847 15.3531 -0.00524114 11.5759 0.0135509C9.97859 0.0135509 9.15174 0.107511 8.08059 0.426977ZM14.6202 3.9411C17.8337 5.06862 19.6189 7.4928 19.6189 10.7062C19.6189 11.5519 19.4874 12.4915 19.2995 13.0553C18.9048 14.164 17.9276 15.5734 17.1384 16.1184L16.5934 16.513L15.5786 15.1224C15.0337 14.3519 14.5075 13.713 14.4135 13.713C14.3196 13.713 13.6994 14.0888 13.0417 14.5586L11.8578 15.4231L12.7034 16.5882L13.5679 17.7533L12.7598 17.9224C10.7115 18.3358 7.46045 17.2459 5.82554 15.611C3.13828 12.9237 3.15707 8.48878 5.82554 5.80151C6.78394 4.84312 8.62556 3.88472 10.0538 3.58405C11.3128 3.33975 13.3236 3.49009 14.6202 3.9411Z" fill="#0A2826"/>
<path d="M156.951 0.370609C154.922 0.896787 152.798 2.08069 151.427 3.45251C149.378 5.46326 148.457 7.7371 148.457 10.7063C148.457 11.5895 148.589 12.811 148.739 13.4311C149.98 18.1667 154.772 21.4365 160.484 21.4553C164.149 21.4553 167.156 20.3278 169.58 18.0352C171.741 15.9868 172.699 13.7506 172.699 10.7626C172.699 7.7559 171.835 5.68877 169.711 3.54647C168.114 1.94914 166.122 0.840411 163.848 0.29544C162.119 -0.136777 158.718 -0.0804011 156.951 0.370609ZM163.397 1.329C165.558 2.13706 167.531 4.63641 168.302 7.5116C168.734 9.14651 168.734 12.266 168.302 13.8821C167.062 18.5238 163.472 21.1734 159.376 20.4781C157.609 20.1775 156.35 19.5197 155.185 18.2607C153.343 16.2687 152.516 13.9197 152.516 10.7063C152.516 7.49281 153.343 5.1438 155.185 3.15184C156.256 2.00552 157.572 1.23504 158.981 0.934371C160.165 0.690074 162.176 0.859203 163.397 1.329Z" fill="#0A2826"/>
<path d="M58.4622 8.35725C56.1508 12.8486 53.9521 16.9828 53.5387 17.5278C52.6179 18.7681 50.9266 20.0459 49.8742 20.3278C49.4232 20.4593 49.0474 20.6661 49.0474 20.7976C49.0474 20.9855 49.9494 21.0419 53.2756 21.0419C56.7333 21.0419 57.5038 20.9855 57.5038 20.7788C57.5038 20.6097 57.2031 20.4969 56.6206 20.4218C55.9253 20.3466 55.6058 20.1963 55.1924 19.7265C54.7038 19.1815 54.6474 19.0124 54.7226 18.1291C54.7789 17.5278 55.0045 16.8137 55.3239 16.2687L55.8313 15.4043H61.5065H67.2005L68.0086 17.0392C68.4596 17.96 68.8918 18.9184 68.967 19.2003C69.1737 19.8768 68.7415 20.4781 68.0086 20.4781C67.6515 20.4781 67.4636 20.5721 67.4636 20.76C67.4636 21.0043 68.0649 21.0419 71.6918 21.0419C75.3187 21.0419 75.92 21.0043 75.92 20.76C75.92 20.6097 75.7697 20.4781 75.5818 20.4781C74.9428 20.4781 73.7402 19.407 72.8757 18.0915C72.4059 17.3962 70.1133 13.0929 67.7831 8.54517C64.1374 1.44176 63.4797 0.276655 63.085 0.220278C62.6904 0.163902 62.3146 0.821625 58.4622 8.35725ZM64.1374 9.61632L66.6931 14.5586L64.081 14.615C62.634 14.6338 60.2662 14.6338 58.838 14.615L56.2071 14.5586L58.7629 9.61632C60.1723 6.91026 61.375 4.69279 61.4501 4.69279C61.5065 4.69279 62.728 6.91026 64.1374 9.61632Z" fill="#0A2826"/>
<path d="M25.3129 0.483365C25.1062 0.690078 25.3693 0.934375 25.8203 0.934375C26.0458 0.934375 26.4404 1.15988 26.7035 1.42297L27.1545 1.91156L27.2673 8.60154C27.38 15.4982 27.4364 15.9868 28.2257 17.5466C28.7143 18.5238 30.1425 20.0271 31.1009 20.5909C33.2244 21.8312 36.2875 22.2634 38.8996 21.7184C42.0566 21.0607 44.4808 19.2567 45.7963 16.607L46.5104 15.1412L46.6043 9.59752C46.6983 4.48608 46.7359 3.9599 47.1117 3.18942C47.6191 2.0619 48.4647 1.31022 49.4795 1.04713C51.2084 0.61491 50.4003 0.464573 46.2285 0.464573C42.0378 0.464573 41.2486 0.61491 43.015 1.04713C44.1801 1.3478 45.1761 2.43774 45.5708 3.84715C45.8338 4.74917 45.8714 5.63239 45.815 9.63511C45.7211 14.8593 45.6459 15.2539 44.4432 17.0016C41.9439 20.6285 35.6861 20.8728 32.623 17.4526C31.2136 15.8741 31.176 15.6298 31.2324 8.30087L31.2888 1.91156L31.7398 1.42297C32.0029 1.15988 32.3975 0.934375 32.6418 0.934375C32.9049 0.934375 33.074 0.821623 33.074 0.652494C33.074 0.408197 32.5291 0.370613 29.2592 0.370613C27.1545 0.370613 25.3693 0.426989 25.3129 0.483365Z" fill="#0A2826"/>
<path d="M74.9803 1.96794V3.56527H79.8663H84.7522V12.3036V21.0419H86.6314H88.5106V12.3036V3.56527H93.3966H98.2825V1.96794V0.370614H86.6314H74.9803V1.96794Z" fill="#0A2826"/>
<path d="M99.9176 0.502156C99.8424 0.558532 99.786 1.29142 99.786 2.09948V3.56526H104.672H109.558L109.595 12.2472L109.652 20.9479H111.531H113.41L113.467 12.2472L113.504 3.56526H118.409H123.295L123.239 2.00552L123.182 0.464572L111.606 0.408196C105.255 0.389404 99.9739 0.426988 99.9176 0.502156Z" fill="#0A2826"/>
<path d="M126.189 0.596127C126.132 0.727671 126.113 5.36931 126.132 10.8942L126.189 20.9479L128.124 21.0043L130.041 21.0607V16.9077V12.7734H133.33H136.599L139.738 16.9077L142.876 21.0419H145.187C146.465 21.0419 147.518 20.9855 147.518 20.9292C147.518 20.854 146.033 18.956 144.21 16.6821C142.387 14.4271 140.922 12.5479 140.959 12.5291C140.997 12.4915 141.41 12.3036 141.861 12.1157C143.102 11.5707 144.398 10.1801 144.887 8.88343C145.432 7.45524 145.357 5.20019 144.718 3.9787C143.74 2.06191 142.106 0.934384 139.813 0.558542C137.971 0.276661 126.301 0.314245 126.189 0.596127ZM139.625 4.16662C141.842 5.29415 141.88 8.019 139.719 9.10894C139.042 9.4472 138.516 9.48478 134.514 9.54116L130.041 9.59753V6.68476V3.7532H134.42C138.591 3.7532 138.836 3.77199 139.625 4.16662Z" fill="#0A2826"/>
</svg>
