<svg width="175" height="38" viewBox="0 0 175 38" fill="none" xmlns="http://www.w3.org/2000/svg">
<path d="M8.64634 0.270717C4.27688 1.50556 1.40824 4.08924 0.306378 7.77478C-0.092572 9.16161 -0.11157 12.5052 0.306378 13.892C1.27526 17.1976 3.89693 19.8193 7.39249 20.9971C9.90018 21.852 12.0279 21.947 15.4095 21.3581C16.0744 21.2441 16.0934 21.2631 17.2713 22.8779C17.9172 23.7708 18.5251 24.5117 18.6201 24.5117C18.8861 24.5117 21.0898 22.9349 21.0898 22.7449C21.0898 22.6499 20.6528 21.985 20.1399 21.2821C19.608 20.5792 19.19 19.9523 19.19 19.8763C19.19 19.8193 19.8169 19.1734 20.5958 18.4324C22.8756 16.2667 23.7874 14.082 23.7874 10.8334C23.7874 7.79378 22.9895 5.70404 21.0328 3.65229C19.684 2.26547 18.3351 1.39158 16.3404 0.65067C15.0865 0.194726 14.6116 0.118736 12.2559 0.0807407C10.3751 0.0237478 9.31125 0.0807407 8.64634 0.270717ZM14.9156 4.07024C17.0623 4.84914 18.4681 6.15998 19.399 8.26872C20.0449 9.71254 20.0069 12.0682 19.323 13.5501C18.7911 14.7279 18.2211 15.4878 17.3283 16.2477L16.7773 16.7037L15.7704 15.2788C15.2195 14.4999 14.6876 13.873 14.5926 13.873C14.4596 13.873 12.4839 15.1079 12.0089 15.5068C11.9709 15.5258 12.3319 16.1147 12.8068 16.7797L13.6807 18.0145L12.8068 18.1475C10.3561 18.5084 6.84156 17.1406 5.41674 15.2788C4.35287 13.892 3.91593 12.5812 3.91593 10.8334C3.91593 9.42757 3.99192 9.06662 4.48586 7.98375C6.27163 4.24122 10.7361 2.55043 14.9156 4.07024Z" fill="#ECECEC"/>
<path d="M158.709 0.384708C154.852 1.39158 151.964 3.82328 150.635 7.16686C150.255 8.13574 150.198 8.59168 150.198 10.8334C150.198 13.0751 150.255 13.5311 150.635 14.4999C152.42 18.9834 156.809 21.7 162.337 21.7C168.226 21.7 173.033 18.4325 174.306 13.5881C174.667 12.1442 174.667 9.52257 174.306 8.07875C173.337 4.4122 170.145 1.44857 165.928 0.384708C163.971 -0.128228 160.608 -0.128228 158.709 0.384708ZM163.724 0.954637C167.447 1.65755 169.974 5.00113 170.506 9.90252C170.696 11.5933 170.202 14.31 169.385 16.0388C167.789 19.4583 164.541 21.3011 161.121 20.7122C157.93 20.1612 155.517 17.7295 154.529 14.044C154.092 12.4102 154.092 9.2566 154.529 7.60381C155.802 2.8544 159.544 0.156737 163.724 0.954637Z" fill="#ECECEC"/>
<path d="M58.971 8.66765C55.3235 15.7918 54.4496 17.3496 53.6137 18.2615C52.4928 19.4963 51.087 20.4652 50.1941 20.6362C49.8521 20.7121 49.5862 20.8831 49.5862 21.0161C49.5862 21.2441 50.3651 21.2821 53.8606 21.2821C57.5272 21.2821 58.1351 21.2441 58.1351 20.9971C58.1351 20.8071 57.9451 20.7121 57.5652 20.7121C57.2422 20.7121 56.7293 20.5792 56.4253 20.4272C55.1335 19.7623 54.9435 18.5084 55.8554 16.7226L56.4253 15.5828L62.1626 15.6208L67.8999 15.6778L68.7928 17.3686C69.2867 18.3184 69.7237 19.2683 69.7807 19.5153C69.8946 20.1422 69.4197 20.7121 68.7548 20.7121C68.3938 20.7121 68.2039 20.8071 68.2039 20.9971C68.2039 21.2441 68.8118 21.2821 72.4783 21.2821C76.1449 21.2821 76.7528 21.2441 76.7528 20.9971C76.7528 20.8451 76.5818 20.7121 76.3728 20.7121C75.8219 20.7121 74.2071 19.1353 73.3712 17.8055C72.9913 17.1786 70.7685 12.9801 68.4698 8.47767C64.7463 1.23958 64.1954 0.289697 63.7774 0.232704C63.3405 0.175711 63.0555 0.669649 58.971 8.66765ZM64.8223 9.73152L67.425 14.7279L64.7653 14.7849C63.3215 14.8039 60.9278 14.8039 59.4839 14.7849L56.8433 14.7279L59.427 9.75051C60.8708 6.99586 62.0676 4.75414 62.1246 4.75414C62.1816 4.75414 63.3975 6.99586 64.8223 9.73152Z" fill="#ECECEC"/>
<path d="M25.4593 0.669649C25.4593 0.840628 25.6303 0.954614 25.9152 0.954614C26.1812 0.954614 26.6371 1.16359 26.9221 1.41056L27.454 1.8665L27.568 8.78164C27.682 16.0767 27.682 16.0577 28.6699 17.9955C28.8789 18.4134 29.4298 19.1353 29.8857 19.6103C33.8562 23.5618 41.9682 22.9159 45.4068 18.3564C46.9266 16.3617 46.9836 16.0197 47.1166 9.78851C47.2496 3.99423 47.3256 3.51929 48.1994 2.32244C48.7124 1.61953 49.9092 0.954614 50.6311 0.954614C50.9351 0.954614 51.1061 0.840628 51.1061 0.669649C51.1061 0.42268 50.4982 0.384685 46.7366 0.384685C43.1651 0.384685 42.3672 0.441678 42.3672 0.650652C42.3672 0.802633 42.6711 0.935616 43.1461 1.01161C44.172 1.14459 45.1978 1.96149 45.7867 3.15834C46.2427 4.05123 46.2617 4.2412 46.3187 8.43968C46.4137 14.4999 46.1097 15.9817 44.3809 17.8245C40.9614 21.491 34.1412 20.6172 32.0705 16.2477L31.5385 15.1078V8.83863C31.5385 3.25333 31.5765 2.49342 31.8805 1.9045C32.0895 1.44855 32.3934 1.18259 32.8304 1.0496C33.1533 0.954614 33.4383 0.764638 33.4383 0.631654C33.4383 0.441678 32.5834 0.384685 29.4488 0.384685C26.0292 0.384685 25.4593 0.42268 25.4593 0.669649Z" fill="#ECECEC"/>
<path d="M75.803 1.99949V3.61428H80.7424H85.6817V12.4482V21.2821H87.5815H89.4813V12.4482V3.61428H94.4207H99.36V1.99949V0.384686H87.5815H75.803V1.99949Z" fill="#ECECEC"/>
<path d="M100.88 1.99948V3.61428H105.819H110.759V12.4482V21.2821H112.753H114.748V12.4482V3.61428H119.688H124.627V1.99948V0.384685H112.753H100.88V1.99948Z" fill="#ECECEC"/>
<path d="M127.666 10.8144V21.2821H129.566H131.466V17.1026V12.9231H134.771H138.058L141.231 17.1026L144.403 21.2821H146.759C148.07 21.2821 149.134 21.2061 149.134 21.1301C149.134 21.0541 147.633 19.1163 145.79 16.8366C143.947 14.5569 142.485 12.6951 142.523 12.6762C142.542 12.6572 143.073 12.3912 143.681 12.0872C145.695 11.0804 146.683 9.50355 146.816 7.10985C146.93 4.92512 146.55 3.84226 145.163 2.45543C144.422 1.73352 143.738 1.25858 142.959 0.954618C141.839 0.498675 141.649 0.498675 134.752 0.422684L127.666 0.346694V10.8144ZM141.155 4.22221C143.396 5.36207 143.453 8.05973 141.25 9.19959C140.547 9.56054 140.11 9.59854 135.987 9.65553L131.466 9.71252V6.76789V3.80426H135.892C140.11 3.80426 140.357 3.82326 141.155 4.22221Z" fill="#ECECEC"/>
<path d="M89.8803 32.9086C89.2533 33.2126 88.9684 33.5166 88.6834 34.1625C87.7715 36.1952 89.0824 38 91.4381 38C93.4138 38 94.4207 37.0501 94.4207 35.2073C94.4207 34.3715 94.3257 34.1055 93.8318 33.5546C92.8819 32.4527 91.3051 32.2057 89.8803 32.9086ZM92.5019 33.9155C93.1288 34.2195 93.2808 34.5424 93.2808 35.4353C93.2808 35.9103 93.1288 36.1952 92.6919 36.5562C91.837 37.2781 90.9441 37.2211 90.1272 36.4042C89.7663 36.0432 89.4813 35.6253 89.4813 35.4543C89.4813 34.9794 89.9942 34.0675 90.3742 33.8395C90.8681 33.5546 91.894 33.5926 92.5019 33.9155Z" fill="#ECECEC"/>
<path d="M56.0454 35.3403V38H56.5204H56.9953V35.3403V32.6807H56.5204H56.0454V35.3403Z" fill="#ECECEC"/>
<path d="M63.8345 35.3403V38H64.4044H64.9553L65.0123 36.4422L65.0693 34.8654L65.9812 36.4422C66.4941 37.2971 67.0261 38 67.1591 38C67.292 38 67.824 37.2971 68.3369 36.4232L69.2488 34.8654L69.3058 36.4232L69.3628 38H69.9137H70.4836V35.3213V32.6617L69.8757 32.7187C69.3248 32.7757 69.1538 32.9466 68.2989 34.4284C67.767 35.3403 67.273 36.1382 67.2161 36.1952C67.1591 36.2522 66.6271 35.4923 66.0382 34.4854C65.0693 32.8516 64.8983 32.6807 64.4044 32.6807H63.8345V35.3403Z" fill="#ECECEC"/>
<path d="M77.3228 35.3403V38H77.7977C78.2346 38 78.2726 37.943 78.2726 37.0501V36.1002H79.6025C80.7803 36.1002 81.0083 36.0432 81.4072 35.6253C81.7682 35.2833 81.8822 34.9604 81.8822 34.3905C81.8822 33.8205 81.7682 33.4976 81.4072 33.1556C80.9893 32.7187 80.7993 32.6807 79.1275 32.6807H77.3228V35.3403ZM80.6283 34.0485C81.0083 34.6754 80.5524 35.0554 79.3365 35.1124L78.2726 35.1694V34.3905V33.6115L79.3365 33.6685C80.1154 33.7065 80.4764 33.8205 80.6283 34.0485Z" fill="#ECECEC"/>
<path d="M101.07 35.3403V38H101.64C102.21 38 102.21 37.981 102.21 36.9551V35.9103H103.026C103.767 35.9103 103.862 35.9863 104.565 36.9551C105.211 37.867 105.401 38 105.952 38C106.294 38 106.579 37.924 106.579 37.829C106.579 37.734 106.256 37.2591 105.838 36.7462L105.116 35.8343L105.553 35.4733C106.218 34.9604 106.199 33.6115 105.515 33.0796C105.078 32.7377 104.736 32.6807 103.045 32.6807H101.07V35.3403ZM104.565 33.7445C104.926 33.8775 104.964 34.4094 104.641 34.7324C104.508 34.8654 103.919 34.9604 103.311 34.9604H102.21V34.2955V33.6305H103.235C103.805 33.6305 104.394 33.6875 104.565 33.7445Z" fill="#ECECEC"/>
<path d="M112.278 33.1556C112.278 33.6115 112.316 33.6305 113.513 33.6305H114.748V35.8153V38H115.318H115.888V35.8153V33.6305H117.123C118.32 33.6305 118.358 33.6115 118.358 33.1556V32.6807H115.318H112.278V33.1556Z" fill="#ECECEC"/>
</svg>
